<?xml version="1.0" encoding="utf-8"?>
<!-- Generator: Adobe Illustrator 21.1.0, SVG Export Plug-In . SVG Version: 6.00 Build 0)  -->
<svg version="1.1" xmlns="http://www.w3.org/2000/svg" xmlns:xlink="http://www.w3.org/1999/xlink" x="0px" y="0px" width="32px"
	 height="54px" viewBox="0 0 32 54" style="enable-background:new 0 0 32 54;" xml:space="preserve">
<style type="text/css">
	.st0{display:none;}
	.st1{display:inline;opacity:0.7;fill:none;}
	.st2{display:inline;opacity:0.8;}
	.st3{fill:#F0F0F0;}
	.st4{fill:#EF5602;}
	.st5{fill:#333333;}
</style>
<g id="FPO">
</g>
<g id="UI">
	<g id="Menu_Component_3_" class="st0">
		<rect id="Background_3_" x="-917.53" y="-15" class="st1" width="1440" height="110"/>
	</g>
</g>
<g id="Dark">
	<g id="accessories">
		<path class="st3" d="M28.63,12.01c-0.05,0-13.22-0.01-13.22-0.01c-2.11,0-3.51,1.05-3.51,3.13v32.06l0,0.04
			c0.02,2.05,1.42,3.77,3.51,3.77h5.88h1.31h5.88c2.09,0,3.48-1.72,3.51-3.77l0-0.04V15.13v0C31.99,13.1,30.66,12.06,28.63,12.01z
			 M16.9,19c0,0.83-0.67,1.5-1.5,1.5c-0.83,0-1.5-0.67-1.5-1.5v-3.5c0-0.83,0.67-1.5,1.5-1.5c0.83,0,1.5,0.67,1.5,1.5V19z"/>
		<path class="st3" d="M10.9,47.24l0-32.11c0-2.54,1.73-4.13,4.51-4.13h7.09V9.5c0-2.29-1.58-3.5-3.92-3.5H3.92
			C1.56,6-0.01,7.18-0.01,9.5v37.23l0,0.05C0.02,49.07,1.58,51,3.92,51h8.71C11.59,50.14,10.92,48.81,10.9,47.24z M4.99,13
			c0,0.83-0.67,1.5-1.5,1.5s-1.5-0.67-1.5-1.5V9.5c0-0.83,0.67-1.5,1.5-1.5s1.5,0.67,1.5,1.5V13z"/>
	</g>
</g>
<g id="Light_1_">
</g>
</svg>
