<?xml version="1.0" encoding="utf-8"?>
<!-- Generator: Adobe Illustrator 21.1.0, SVG Export Plug-In . SVG Version: 6.00 Build 0)  -->
<svg version="1.1" xmlns="http://www.w3.org/2000/svg" xmlns:xlink="http://www.w3.org/1999/xlink" x="0px" y="0px" width="52px"
	 height="54px" viewBox="0 0 52 54" style="enable-background:new 0 0 52 54;" xml:space="preserve">
<style type="text/css">
	.st0{display:none;}
	.st1{display:inline;opacity:0.7;fill:none;}
	.st2{display:inline;opacity:0.8;}
	.st3{fill:#F0F0F0;}
	.st4{fill:#EF5602;}
	.st5{fill:#333333;}
</style>
<g id="FPO">
</g>
<g id="UI">
	<g id="Menu_Component_3_" class="st0">
		<rect id="Background_3_" x="-992.03" y="-15" class="st1" width="1440" height="110"/>
	</g>
</g>
<g id="Dark">
	<g id="compare">
		<path class="st3" d="M22.74,51h10.35c1.64,0,3-1.34,3-2.99V25.12v-9.66v-2.47c0-1.64-1.34-2.99-2.99-2.99h-8.75v3h5.71
			c0.73,0,0.96-0.44,1.02-0.83c0.01-0.06,0-0.78,0-0.81c0.03-0.25,0.29-0.34,0.44-0.36h1.76c0.99,0,1.8,0.81,1.8,1.8v35.4
			c0,0.99-0.81,1.8-1.8,1.8h-9.64C23.41,50.38,23.09,50.71,22.74,51z M27.81,11.7c0,0.04-0.01,0.18-0.19,0.18h-2.74
			c-0.18,0-0.19-0.14-0.19-0.18v-0.03c0-0.04,0.01-0.18,0.19-0.18h2.74c0.18,0,0.19,0.14,0.19,0.18V11.7z"/>
		<path id="iPhone_X_2_" class="st3" d="M20,51c1.84,0,3.36-1.5,3.36-3.34v-25.6v-10.8V8.49c0-1.84-1.5-3.34-3.34-3.34H4.33
			c-1.84,0-3.34,1.5-3.34,3.34v7.17v5.3v26.7C0.98,49.5,2.5,51,4.34,51H20z M13.24,7.03c0-0.24,0.19-0.43,0.43-0.43
			c0.24,0,0.43,0.19,0.43,0.43c0,0.24-0.19,0.43-0.43,0.43C13.43,7.45,13.24,7.26,13.24,7.03z M8.83,7.01c0-0.05,0.01-0.2,0.21-0.2
			h3.07c0.2,0,0.21,0.16,0.21,0.2v0.03c0,0.05-0.01,0.2-0.21,0.2H9.04c-0.2,0-0.21-0.16-0.21-0.2V7.01z M16.61,8.5
			c0.81,0,1.07-0.49,1.15-0.93c0.01-0.06,0-0.88,0-0.9c0.03-0.28,0.33-0.38,0.49-0.4h1.97c1.11,0,2.01,0.91,2.01,2.01v39.59
			c0,1.11-0.91,2.01-2.01,2.01H4.12c-1.11,0-2.01-0.91-2.01-2.01V8.28c0-1.11,0.91-2.01,2.01-2.01h1.97
			c0.16,0.02,0.46,0.12,0.49,0.4c0,0.03-0.01,0.84,0,0.9C6.65,8.01,6.91,8.5,7.72,8.5H16.61z"/>
		<g>
			<circle class="st3" cx="41.46" cy="49" r="0.88"/>
			<path class="st3" d="M48.09,13h-11v4h12.87v30H37.09v1.01c0,1.19-0.54,2.26-1.38,2.99h12.38c1.58,0,2.87-1.43,2.87-3V15.88
				C50.96,14.3,49.66,13,48.09,13z M42.96,15.5h-3V15h3V15.5z M41.46,50.5c-0.83,0-1.5-0.67-1.5-1.5c0-0.83,0.67-1.5,1.5-1.5
				c0.83,0,1.5,0.67,1.5,1.5C42.96,49.83,42.28,50.5,41.46,50.5z"/>
		</g>
	</g>
</g>
<g id="Light_1_">
</g>
</svg>
