<?xml version="1.0" encoding="utf-8"?>
<!-- Generator: Adobe Illustrator 21.1.0, SVG Export Plug-In . SVG Version: 6.00 Build 0)  -->
<svg version="1.1" xmlns="http://www.w3.org/2000/svg" xmlns:xlink="http://www.w3.org/1999/xlink" x="0px" y="0px" width="36px"
	 height="54px" viewBox="0 0 36 54" style="enable-background:new 0 0 36 54;" xml:space="preserve">
<style type="text/css">
	.st0{display:none;}
	.st1{display:inline;opacity:0.7;fill:none;}
	.st2{display:inline;opacity:0.8;}
	.st3{fill:#F0F0F0;}
	.st4{fill:#EF5602;}
	.st5{fill:#333333;}
</style>
<g id="FPO">
</g>
<g id="UI">
	<g id="Menu_Component_3_" class="st0">
		<rect id="Background_3_" x="-404.5" y="-15" class="st1" width="1440" height="110"/>
	</g>
</g>
<g id="Dark">
	<path class="st3" d="M12.94,50H3.3c-0.99,0-1.8-0.81-1.8-1.8V12.8c0-0.99,0.81-1.8,1.8-1.8h1.76c0.15,0.02,0.41,0.11,0.44,0.36
		c0,0.02-0.01,0.75,0,0.81C5.57,12.56,5.8,13,6.52,13h5.71v-3H3.49c-1.64,0-2.99,1.34-2.99,2.99v2.47v9.66v22.89
		c0,1.64,1.36,2.99,3,2.99h10.35C13.5,50.71,13.18,50.38,12.94,50z M8.78,11.67c0-0.04,0.01-0.18,0.19-0.18h2.74
		c0.18,0,0.19,0.14,0.19,0.18v0.03c0,0.04-0.01,0.18-0.19,0.18H8.97c-0.18,0-0.19-0.14-0.19-0.18V11.67z"/>
	<path id="iPhone_X_9_" class="st3" d="M32.25,51c1.84,0,3.36-1.5,3.36-3.34v-26.7v-5.3V8.49c0-1.84-1.5-3.34-3.34-3.34H16.58
		c-1.84,0-3.34,1.5-3.34,3.34v2.77v10.8v25.6c0,1.84,1.52,3.34,3.36,3.34H32.25z M27.33,6.6c0.24,0,0.43,0.19,0.43,0.43
		c0,0.24-0.19,0.43-0.43,0.43c-0.24,0-0.43-0.19-0.43-0.43C26.9,6.79,27.09,6.6,27.33,6.6z M22.5,7.01c0-0.05,0.01-0.2,0.21-0.2
		h3.07c0.2,0,0.21,0.16,0.21,0.2v0.03c0,0.05-0.01,0.2-0.21,0.2h-3.07c-0.2,0-0.21-0.16-0.21-0.2V7.01z M28.87,8.5
		c0.81,0,1.07-0.49,1.15-0.93c0.01-0.06,0-0.88,0-0.9c0.03-0.28,0.33-0.38,0.49-0.4h1.97c1.11,0,2.01,0.91,2.01,2.01v39.59
		c0,1.11-0.91,2.01-2.01,2.01h-16.1c-1.11,0-2.01-0.91-2.01-2.01V8.28c0-1.11,0.91-2.01,2.01-2.01h1.97
		c0.16,0.02,0.46,0.12,0.49,0.4c0,0.03-0.01,0.84,0,0.9c0.07,0.44,0.33,0.93,1.15,0.93H28.87z"/>
</g>
<g id="Light_1_">
</g>
</svg>
