<?xml version="1.0" encoding="utf-8"?>
<!-- Generator: Adobe Illustrator 21.1.0, SVG Export Plug-In . SVG Version: 6.00 Build 0)  -->
<svg version="1.1" xmlns="http://www.w3.org/2000/svg" xmlns:xlink="http://www.w3.org/1999/xlink" x="0px" y="0px" width="37px"
	 height="54px" viewBox="0 0 37 54" style="enable-background:new 0 0 37 54;" xml:space="preserve">
<style type="text/css">
	.st0{display:none;}
	.st1{display:inline;opacity:0.7;fill:none;}
	.st2{display:inline;opacity:0.8;}
	.st3{fill:#F0F0F0;}
	.st4{fill:#EF5602;}
	.st5{fill:#333333;}
</style>
<g id="FPO">
</g>
<g id="UI">
	<g id="Menu_Component_3_" class="st0">
		<rect id="Background_3_" x="-674" y="-15" class="st1" width="1440" height="110"/>
	</g>
</g>
<g id="Dark">
	<path id="iPhone_6s_2_" class="st3" d="M14.02,48.02L14,47H1V17h13v-4H2.87C1.29,13,0,14.3,0,15.88V48c0,1.57,1.29,3,2.87,3h12.77
		C14.79,50.33,14.02,49.18,14.02,48.02z M8,15h3v0.5H8V15z M9.5,50.5C8.67,50.5,8,49.83,8,49c0-0.83,0.67-1.5,1.5-1.5
		c0.83,0,1.5,0.67,1.5,1.5C11,49.83,10.33,50.5,9.5,50.5z M33.65,6H18.33C16.49,6,15,7.51,15,9.35v38.28c0,1.85,1.49,3.37,3.33,3.37
		h15.33c1.84,0,3.35-1.52,3.35-3.37V9.35C37,7.51,35.49,6,33.65,6z M24.5,8.5h3V9h-3V8.5z M26,50.25c-0.97,0-1.75-0.78-1.75-1.75
		c0-0.97,0.79-1.75,1.75-1.75c0.96,0,1.75,0.78,1.75,1.75C27.75,49.47,26.97,50.25,26,50.25z M36,46H16V11h20V46z M26,49.5
		c-0.55,0-1-0.45-1-1c0-0.55,0.45-1,1-1c0.55,0,1,0.45,1,1C27,49.05,26.55,49.5,26,49.5z M9.5,49.88c-0.48,0-0.87-0.39-0.87-0.88
		c0-0.48,0.39-0.87,0.87-0.87s0.88,0.39,0.88,0.87C10.38,49.48,9.98,49.88,9.5,49.88z"/>
</g>
<g id="Light_1_">
</g>
</svg>
