<?xml version="1.0" encoding="utf-8"?>
<!-- Generator: Adobe Illustrator 21.1.0, SVG Export Plug-In . SVG Version: 6.00 Build 0)  -->
<svg version="1.1" xmlns="http://www.w3.org/2000/svg" xmlns:xlink="http://www.w3.org/1999/xlink" x="0px" y="0px" width="38px"
	 height="54px" viewBox="0 0 38 54" style="enable-background:new 0 0 38 54;" xml:space="preserve">
<style type="text/css">
	.st0{display:none;}
	.st1{display:inline;opacity:0.7;fill:none;}
	.st2{display:inline;opacity:0.8;}
	.st3{fill:#F0F0F0;}
	.st4{fill:#EF5602;}
	.st5{fill:#333333;}
</style>
<g id="FPO">
</g>
<g id="UI">
	<g id="Menu_Component_3_" class="st0">
		<rect id="Background_3_" x="-585.5" y="-15" class="st1" width="1440" height="110"/>
	</g>
</g>
<g id="Dark">
	<path id="iPhone_6s_1_" class="st3" d="M14.52,48.02L14.5,47h-13V17h13v-4H3.37c-1.58,0-2.87,1.3-2.87,2.88V48
		c0,1.57,1.29,3,2.87,3h12.77C15.29,50.33,14.52,49.18,14.52,48.02z M8.5,15h3v0.5h-3V15z M10,50.5c-0.83,0-1.5-0.67-1.5-1.5
		c0-0.83,0.67-1.5,1.5-1.5c0.83,0,1.5,0.67,1.5,1.5C11.5,49.83,10.83,50.5,10,50.5z M34.15,6H18.83c-1.84,0-3.33,1.51-3.33,3.35
		v38.28c0,1.85,1.49,3.37,3.33,3.37h15.33c1.84,0,3.35-1.52,3.35-3.37V9.35C37.5,7.51,35.99,6,34.15,6z M25,8.5h3V9h-3V8.5z
		 M26.5,50.25c-0.97,0-1.75-0.78-1.75-1.75c0-0.97,0.79-1.75,1.75-1.75c0.96,0,1.75,0.78,1.75,1.75
		C28.25,49.47,27.47,50.25,26.5,50.25z M36.5,46h-20V11h20V46z M26.5,49.5c-0.55,0-1-0.45-1-1c0-0.55,0.45-1,1-1c0.55,0,1,0.45,1,1
		C27.5,49.05,27.05,49.5,26.5,49.5z M10,49.88c-0.48,0-0.87-0.39-0.87-0.88c0-0.48,0.39-0.87,0.87-0.87s0.88,0.39,0.88,0.87
		C10.88,49.48,10.48,49.88,10,49.88z"/>
</g>
<g id="Light_1_">
</g>
</svg>
