<?xml version="1.0" encoding="utf-8"?>
<!-- Generator: Adobe Illustrator 21.1.0, SVG Export Plug-In . SVG Version: 6.00 Build 0)  -->
<svg version="1.1" xmlns="http://www.w3.org/2000/svg" xmlns:xlink="http://www.w3.org/1999/xlink" x="0px" y="0px" width="22px"
	 height="54px" viewBox="0 0 22 54" style="enable-background:new 0 0 22 54;" xml:space="preserve">
<style type="text/css">
	.st0{display:none;}
	.st1{display:inline;opacity:0.7;fill:none;}
	.st2{display:inline;opacity:0.8;}
	.st3{fill:#F0F0F0;}
	.st4{fill:#EF5602;}
	.st5{fill:#333333;}
</style>
<g id="FPO">
</g>
<g id="UI">
	<g id="Menu_Component_3_" class="st0">
		<rect id="Background_3_" x="-497.5" y="-15" class="st1" width="1440" height="110"/>
	</g>
</g>
<g id="Dark">
	<path id="iPhone_Xr" class="st3" d="M18.45,51c1.75,0,3.19-1.43,3.19-3.18v-25.4v-5.04v-6.82c0-1.75-1.43-3.18-3.18-3.18H3.54
		c-1.75,0-3.18,1.43-3.18,3.18v2.63v10.27v24.35C0.36,49.57,1.8,51,3.55,51H18.45z M13.77,8.77c0.22,0,0.4,0.18,0.4,0.4
		c0,0.22-0.18,0.4-0.4,0.4c-0.22,0-0.4-0.18-0.4-0.4C13.36,8.95,13.54,8.77,13.77,8.77z M9.17,9.16c0-0.04,0.01-0.19,0.2-0.19h2.92
		c0.19,0,0.2,0.15,0.2,0.19v0.03c0,0.04-0.01,0.19-0.2,0.19H9.37c-0.19,0-0.2-0.15-0.2-0.19V9.16z M15.23,10.58
		c0.77,0,1.02-0.46,1.09-0.88c0.01-0.06,0-0.83,0-0.86c0.03-0.27,0.31-0.36,0.47-0.38h1.87c1.05,0,1.92,0.86,1.92,1.92v37.66
		c0,1.05-0.86,1.92-1.92,1.92H3.34c-1.05,0-1.92-0.86-1.92-1.92V10.36c0-1.05,0.86-1.92,1.92-1.92h1.87
		c0.15,0.02,0.44,0.12,0.47,0.38c0,0.03-0.01,0.8,0,0.86c0.07,0.42,0.31,0.88,1.09,0.88H15.23z"/>
</g>
<g id="Light_1_">
</g>
</svg>
